<svg width="125" height="19" viewBox="0 0 125 19" fill="none" xmlns="http://www.w3.org/2000/svg">
<path d="M77.0823 5.97314C77.0738 5.29846 76.8 4.65328 76.3186 4.17313C75.8371 3.69299 75.1853 3.41525 74.5003 3.39826H74.4405C74.1848 3.40671 73.9309 3.44398 73.6838 3.50936C73.5909 3.54203 73.498 3.56817 73.4117 3.60738C73.0962 3.73888 72.8098 3.9298 72.5687 4.16941C72.5278 4.2031 72.4901 4.24028 72.4559 4.28051C72.416 4.31972 72.3895 4.35894 72.3563 4.39815C71.9434 5.01949 71.7434 5.75462 71.7854 6.49596V13.2338H68.5131V6.23455C68.5123 5.15343 68.8183 4.09359 69.3965 3.17448C69.9746 2.25536 70.802 1.5135 71.7854 1.03249C72.6074 0.619796 73.5178 0.406912 74.4405 0.411645C74.6289 0.410409 74.8173 0.419131 75.0047 0.437781H75.0379C76.2104 0.557423 77.3201 1.01825 78.2255 1.76146C79.1308 2.50468 79.7908 3.49658 80.1212 4.61064L80.1257 4.62652C80.1973 4.9096 80.2021 5.20506 80.1397 5.49025C80.0774 5.77544 79.9496 6.04279 79.766 6.27182C79.5825 6.50085 79.3482 6.68548 79.081 6.81155C78.8138 6.93763 78.5208 7.00181 78.2246 6.99917H77.0823L77.0823 5.97314Z" fill="white"/>
<path d="M92.6946 7.15601L93.4016 7.18825C93.7354 7.20244 94.0602 7.29915 94.3461 7.46947C94.632 7.63978 94.8697 7.87821 95.0373 8.16277C95.205 8.44733 95.2972 8.76887 95.3054 9.09774C95.3136 9.42662 95.2376 9.75224 95.0844 10.0446C94.5798 10.9954 93.8456 11.8096 92.9465 12.4156C92.0474 13.0217 91.0108 13.4009 89.9279 13.5201C88.845 13.6392 87.749 13.4946 86.7362 13.099C85.7233 12.7033 84.8247 12.0688 84.1194 11.2511C83.7448 10.8362 83.2836 10.5059 82.7673 10.283C82.251 10.0601 81.6918 9.9498 81.1281 9.95965H80.3551V13.2338H77.0827V8.47615H84.9332C85.2277 8.47693 85.5185 8.54205 85.7844 8.66683C86.0503 8.79161 86.2848 8.97294 86.4709 9.19772C86.8022 9.59034 87.2165 9.90698 87.685 10.1255C88.1535 10.344 88.6649 10.4592 89.1833 10.4629C90.0885 10.463 90.9588 10.1193 91.613 9.50325C92.2671 8.8872 92.6546 8.04638 92.6946 7.15601Z" fill="white"/>
<path d="M109.747 0.751454L104.935 13.2338H101.211L99.8316 9.65526C99.7172 9.35847 99.6778 9.03877 99.7166 8.72364C99.7554 8.40851 99.8713 8.10738 100.054 7.84611C100.238 7.58485 100.482 7.37127 100.768 7.22374C101.053 7.07621 101.371 6.99913 101.693 6.99913H102.187L103.063 9.48906L106.149 0.751434L109.747 0.751454Z" fill="white"/>
<path d="M93.4324 5.51569C93.1379 5.51457 92.8473 5.44932 92.5815 5.3246C92.3156 5.19988 92.0811 5.01879 91.8947 4.79432C91.6433 4.49612 91.3437 4.24082 91.0078 4.03873C90.4862 3.72662 89.8909 3.55366 89.2807 3.53687C88.6705 3.52008 88.0664 3.66004 87.5279 3.94297C86.9893 4.2259 86.5349 4.64204 86.2093 5.15044C85.8837 5.65883 85.6982 6.24194 85.6711 6.84236L84.9696 6.81034C84.6359 6.79608 84.3113 6.69936 84.0255 6.52911C83.7397 6.35885 83.502 6.12054 83.3344 5.8361C83.1667 5.55167 83.0745 5.23027 83.0661 4.90151C83.0578 4.57275 83.1336 4.2472 83.2865 3.95486C83.7902 3.00248 84.524 2.18665 85.4233 1.5793C86.3226 0.971951 87.3599 0.591707 88.4437 0.472071C89.5275 0.352436 90.6245 0.497084 91.6381 0.893269C92.6517 1.28945 93.5508 1.92502 94.2561 2.74395C94.6318 3.15996 95.0944 3.49105 95.6122 3.71455C96.13 3.93804 96.6908 4.04864 97.2561 4.03878H97.6654L96.3976 0.751547H99.9886L101.661 5.51574L93.4324 5.51569Z" fill="white"/>
<path d="M9.84914 6.75721C9.43339 6.4867 8.98884 6.26176 8.52342 6.0864C8.04203 5.91772 7.5496 5.78127 7.04951 5.67799C5.51643 5.29149 4.74614 4.83218 4.74614 4.29987C4.74728 4.15277 4.78583 4.00829 4.85828 3.87963C4.93073 3.75098 5.03478 3.64223 5.1609 3.56335C5.47355 3.36457 5.84072 3.26525 6.21263 3.27886C6.64343 3.25867 7.06998 3.37058 7.43345 3.59914C7.79692 3.8277 8.07941 4.16167 8.24197 4.55498L11.0341 3.05277C10.5643 2.22904 9.86887 1.55189 9.02705 1.09854C8.16451 0.635295 7.19508 0.399198 6.21266 0.41313C4.97401 0.372641 3.75862 0.75092 2.76868 1.48504C2.32086 1.82369 1.96252 2.2636 1.72401 2.76753C1.48551 3.27145 1.37386 3.82455 1.39852 4.37997C1.38595 4.93657 1.51316 5.48762 1.76884 5.98419C2.01675 6.44748 2.38796 6.83567 2.84273 7.1072C3.25947 7.36967 3.70097 7.59193 4.16109 7.77089C4.56843 7.91669 5.05722 8.0698 5.63494 8.22291C7.16807 8.60211 7.93832 9.06142 7.93832 9.59391C7.93832 10.3085 7.35323 10.6658 6.19042 10.6658C5.65122 10.7158 5.11091 10.5824 4.65945 10.2879C4.208 9.99332 3.87267 9.55539 3.70931 9.047L0.865234 10.6147C1.81327 12.5982 3.59078 13.5826 6.19043 13.5826C7.47658 13.6249 8.74364 13.2677 9.81216 12.5617C10.2907 12.2281 10.6764 11.7816 10.9339 11.2631C11.1915 10.7445 11.3125 10.1705 11.286 9.59391C11.299 9.01222 11.1668 8.43629 10.9009 7.9167C10.6599 7.4459 10.2971 7.04597 9.84914 6.75721Z" fill="white"/>
<path d="M35.6253 0.411393C34.8438 0.369532 34.0635 0.512529 33.3497 0.828422C32.6358 1.14432 32.0092 1.62392 31.5222 2.22712V0.754111H28.2486V18.2259H31.5222V11.7652C32.0092 12.3684 32.6358 12.848 33.3497 13.1639C34.0635 13.4798 34.8438 13.6228 35.6253 13.5809C36.4485 13.5947 37.2649 13.4322 38.0181 13.1049C38.7713 12.7775 39.4433 12.293 39.9877 11.6849C41.1607 10.4005 41.8097 8.7343 41.8097 7.00702C41.8097 5.27975 41.1607 3.61353 39.9877 2.32914C39.4442 1.7184 38.7729 1.23074 38.0199 0.899702C37.2669 0.568661 36.4499 0.402074 35.6253 0.411393ZM37.5288 9.54108C36.846 10.1644 35.9492 10.5108 35.018 10.5108C34.0868 10.5108 33.1901 10.1644 32.5073 9.54108C32.1784 9.20343 31.9217 8.80419 31.7525 8.36702C31.5833 7.92986 31.505 7.46368 31.5222 6.99615C31.5036 6.53177 31.5813 6.06852 31.7507 5.63472C31.9201 5.20091 32.1775 4.80567 32.5073 4.47314C33.181 3.83226 34.0812 3.47403 35.018 3.47403C35.9548 3.47403 36.855 3.83226 37.5288 4.47314C37.8656 4.80196 38.1297 5.19588 38.3043 5.6301C38.4789 6.06432 38.5603 6.52943 38.5434 6.99615C38.5589 7.46599 38.4769 7.93401 38.3025 8.37158C38.128 8.80916 37.8647 9.2071 37.5288 9.54108Z" fill="white"/>
<path d="M50.376 0.411405C49.4822 0.376799 48.591 0.527712 47.7603 0.854331C46.9297 1.18095 46.1781 1.67597 45.5544 2.30724C44.9394 2.92566 44.4566 3.6593 44.1348 4.46471C43.8129 5.27012 43.6585 6.13093 43.6806 6.99616C43.6544 7.86879 43.8097 8.73747 44.1371 9.54881C44.4644 10.3602 44.9568 11.097 45.584 11.7141C46.2517 12.3465 47.0433 12.8382 47.9105 13.1591C48.7777 13.4801 49.7023 13.6236 50.6278 13.5809C51.7038 13.6391 52.7769 13.4242 53.7444 12.9569C54.7118 12.4895 55.5412 11.7854 56.1529 10.9119L53.5162 9.41702C53.1813 9.83547 52.7482 10.1676 52.2541 10.3848C51.7599 10.6021 51.2196 10.6979 50.6796 10.6641C48.7169 10.6641 47.5245 9.88144 47.1023 8.3161H56.6566C56.7343 7.88015 56.7764 7.43876 56.7824 6.99618C56.8069 6.13504 56.6586 5.27761 56.3459 4.47301C56.0333 3.6684 55.5624 2.93244 54.9605 2.30726C54.381 1.68364 53.671 1.19119 52.8796 0.863884C52.0881 0.536578 51.2339 0.382199 50.376 0.411405ZM47.0505 5.82206C47.1991 5.09033 47.6025 4.43266 48.1911 3.96255C48.8226 3.50524 49.5925 3.27143 50.376 3.29904C51.1213 3.27256 51.8509 3.51397 52.4288 3.97822C53.0066 4.44247 53.3931 5.09784 53.5163 5.82206H47.0505Z" fill="white"/>
<path d="M120.912 0.754133V2.22714C120.418 1.62452 119.786 1.14579 119.067 0.83018C118.349 0.514566 117.565 0.371052 116.779 0.411416C115.956 0.405063 115.141 0.573024 114.39 0.903903C113.638 1.23478 112.968 1.72085 112.424 2.32915C111.265 3.61995 110.624 5.28374 110.624 7.00703C110.624 8.73032 111.265 10.3941 112.424 11.6849C112.971 12.2878 113.643 12.7688 114.394 13.0957C115.145 13.4227 115.958 13.5881 116.779 13.5809C117.565 13.6213 118.349 13.4778 119.067 13.1622C119.786 12.8466 120.418 12.3678 120.912 11.7652V13.2309H124.178V0.754133H120.912ZM119.897 9.5411C119.214 10.1645 118.318 10.5108 117.386 10.5108C116.455 10.5108 115.558 10.1645 114.876 9.5411C114.548 9.20247 114.292 8.80307 114.123 8.36614C113.954 7.92921 113.875 7.4635 113.891 6.99618C113.874 6.53198 113.952 6.06921 114.122 5.63565C114.291 5.20208 114.547 4.80668 114.876 4.47316C115.549 3.83227 116.45 3.47406 117.386 3.47406C118.323 3.47406 119.223 3.83227 119.897 4.47316C120.234 4.80198 120.498 5.1959 120.673 5.63012C120.847 6.06434 120.929 6.52945 120.912 6.99618C120.927 7.46601 120.845 7.93402 120.671 8.37159C120.496 8.80917 120.233 9.20711 119.897 9.5411Z" fill="white"/>
<path d="M59.3981 0.753998V13.2311H62.6718V3.71446H66.75V0.753998H59.3981Z" fill="white"/>
<path d="M21.9902 7.49195C22.0311 8.23385 21.8314 8.96934 21.4199 9.59215C21.3919 9.63412 21.3596 9.6732 21.3236 9.70876C21.2866 9.75255 21.2496 9.78887 21.2125 9.82537C20.9733 10.0643 20.689 10.255 20.3756 10.3869C20.2842 10.425 20.1901 10.4567 20.0942 10.4818C19.8481 10.5497 19.5942 10.5865 19.3387 10.5911C18.6429 10.5898 17.9756 10.3191 17.4809 9.8375C16.9861 9.35585 16.7037 8.70191 16.6946 8.01694V0.754089H13.421V7.75456C13.4215 9.1963 13.9646 10.5867 14.9453 11.6574C15.926 12.728 17.2749 13.4029 18.7314 13.5517H18.7758C18.9627 13.5725 19.1507 13.5823 19.3387 13.5809C20.1163 13.5826 20.8866 13.4331 21.6054 13.1409C22.3241 12.8487 22.9772 12.4196 23.527 11.8782C24.0769 11.3369 24.5127 10.6939 24.8095 9.98623C25.1062 9.27858 25.2581 8.52017 25.2564 7.75456V0.754089H21.9902L21.9902 7.49195Z" fill="white"/>
</svg>
