<svg width="24" height="24" viewBox="0 0 24 24" xmlns="http://www.w3.org/2000/svg">
  <path  clip-rule="evenodd" d="M12 1.50006C6.20101 1.50006 1.5 6.20107 1.5 12.0001C1.5 17.7991 6.20101 22.5001 12 22.5001C17.799 22.5001 22.5 17.7991 22.5 12.0001C22.5 9.21529 21.3938 6.54457 19.4246 4.57544C17.4555 2.60631 14.7848 1.50006 12 1.50006ZM7.5 19.7851V18.2851C7.42733 16.9658 8.43145 15.8345 9.75 15.7501H14.25C15.5716 15.8345 16.577 16.9705 16.5 18.2926V19.7926C13.7196 21.4159 10.2804 21.4159 7.5 19.7926V19.7851ZM18 18.6901V18.2326C18.0466 16.104 16.3775 14.3314 14.25 14.2501H9.75C7.6225 14.3314 5.95341 16.104 6 18.2326V18.6976C3.21867 16.2099 2.26095 12.2639 3.59245 8.77796C4.92395 5.29205 8.26846 2.98936 12 2.98936C15.7315 2.98936 19.0761 5.29205 20.4076 8.77796C21.739 12.2639 20.7813 16.2099 18 18.6976V18.6901ZM12 5.25006C9.92893 5.25006 8.25 6.92899 8.25 9.00006C8.25 11.0711 9.92893 12.7501 12 12.7501C14.0711 12.7501 15.75 11.0711 15.75 9.00006C15.75 8.0055 15.3549 7.05167 14.6517 6.34841C13.9484 5.64515 12.9946 5.25006 12 5.25006ZM12 11.2501C10.7574 11.2501 9.75 10.2427 9.75 9.00006C9.75 7.75742 10.7574 6.75006 12 6.75006C13.2426 6.75006 14.25 7.75742 14.25 9.00006C14.25 9.5968 14.0129 10.1691 13.591 10.5911C13.169 11.013 12.5967 11.2501 12 11.2501Z" />
  <mask id="mask0" mask-type="alpha" maskUnits="userSpaceOnUse" x="1" y="1" width="22" height="22">
    <path clip-rule="evenodd" d="M12 1.50006C6.20101 1.50006 1.5 6.20107 1.5 12.0001C1.5 17.7991 6.20101 22.5001 12 22.5001C17.799 22.5001 22.5 17.7991 22.5 12.0001C22.5 9.21529 21.3938 6.54457 19.4246 4.57544C17.4555 2.60631 14.7848 1.50006 12 1.50006ZM7.5 19.7851V18.2851C7.42733 16.9658 8.43145 15.8345 9.75 15.7501H14.25C15.5716 15.8345 16.577 16.9705 16.5 18.2926V19.7926C13.7196 21.4159 10.2804 21.4159 7.5 19.7926V19.7851ZM18 18.6901V18.2326C18.0466 16.104 16.3775 14.3314 14.25 14.2501H9.75C7.6225 14.3314 5.95341 16.104 6 18.2326V18.6976C3.21867 16.2099 2.26095 12.2639 3.59245 8.77796C4.92395 5.29205 8.26846 2.98936 12 2.98936C15.7315 2.98936 19.0761 5.29205 20.4076 8.77796C21.739 12.2639 20.7813 16.2099 18 18.6976V18.6901ZM12 5.25006C9.92893 5.25006 8.25 6.92899 8.25 9.00006C8.25 11.0711 9.92893 12.7501 12 12.7501C14.0711 12.7501 15.75 11.0711 15.75 9.00006C15.75 8.0055 15.3549 7.05167 14.6517 6.34841C13.9484 5.64515 12.9946 5.25006 12 5.25006ZM12 11.2501C10.7574 11.2501 9.75 10.2427 9.75 9.00006C9.75 7.75742 10.7574 6.75006 12 6.75006C13.2426 6.75006 14.25 7.75742 14.25 9.00006C14.25 9.5968 14.0129 10.1691 13.591 10.5911C13.169 11.013 12.5967 11.2501 12 11.2501Z"/>
  </mask>
  <g mask="url(#mask0)">
  </g>
</svg>
